<svg id="Layer_1" data-name="Layer 1" xmlns="http://www.w3.org/2000/svg" viewBox="0 0 298.05 87.23"><defs><style>.cls-1{fill:#5fb5e6;}.cls-2{fill:#e5793c;}.cls-3{fill:#00aeef;}.cls-4{fill:#443d3b;}</style></defs><title>Artboard 2</title><path class="cls-1" d="M64.54,34.8c-2.19-5.39-16.77-7.9-20.31-13.31-2.86-4.36,5.93-12.76,5.93-12.76-5,0-15.76,8.17-22.69,18.13,8.27,2.11,19.11,7,22.1,12.49,3.79,6.93.69,15.82-4.74,23.61a25.72,25.72,0,0,0,8,1C61,63.15,67.63,42.4,64.54,34.8Z"/><path class="cls-2" d="M22.73,50.47c-3.78-6.93-.69-15.82,4.74-23.61a25.72,25.72,0,0,0-8-1C11.32,26.67,4.67,47.42,7.76,55,10,60.4,24.53,62.91,28.07,68.32c2.86,4.36-5.93,12.76-5.93,12.76,5,0,15.76-8.17,22.69-18.13C36.56,60.85,25.72,55.94,22.73,50.47Z"/><path class="cls-3" d="M49.57,39.35c-3-5.47-13.83-10.38-22.1-12.49C22,34.65,18.95,43.54,22.73,50.47c3,5.47,13.83,10.38,22.1,12.49C50.26,55.17,53.36,46.28,49.57,39.35Z"/><path class="cls-4" d="M49.57,39.35c-3-5.47-13.83-10.38-22.1-12.49C22,34.65,18.95,43.54,22.73,50.47c3,5.47,13.83,10.38,22.1,12.49C50.26,55.17,53.36,46.28,49.57,39.35Z"/><path class="cls-2" d="M79.65,32.28v24.5H73.17V32.28Z"/><path class="cls-2" d="M96.34,31.75a16.72,16.72,0,0,1,7.11,1.54v6.13a9.55,9.55,0,0,0-6-2c-3.89,0-7.74,2.14-7.74,7.46,0,4.76,3.85,6.72,7.67,6.72a9,9,0,0,0,6.23-2.14v6.3a16.54,16.54,0,0,1-7.14,1.54c-6.72,0-13.41-3.68-13.41-12.43C83.08,35.64,89.73,31.75,96.34,31.75Z"/><path class="cls-2" d="M104.92,56.78l9.63-24.5h7l9.63,24.5h-6.65l-1.4-3.85H113l-1.4,3.85Zm10-9.1h6.3l-2.52-7.07a12.29,12.29,0,0,1-.63-2.48,12.26,12.26,0,0,1-.63,2.48Z"/><path class="cls-2" d="M133.51,56.78V32.28h10.33c5,0,10,1.79,10,8.26,0,4.06-2,6.27-4.69,7.35l6.76,8.89h-7.32l-5.85-8H140v8ZM140,43.55h4.13c1.86,0,3.12-.94,3.12-2.84s-1.26-2.84-3.12-2.84H140Z"/><path class="cls-4" d="M165.18,41h-.72v-8.4h.72Z"/><path class="cls-4" d="M166.81,35.25h.62v.83a1.84,1.84,0,0,1,1.7-1,1.77,1.77,0,0,1,1.8,2V41h-.68V37.13c0-.95-.5-1.39-1.26-1.39a1.59,1.59,0,0,0-1.5,1.18V41h-.68Z"/><path class="cls-4" d="M172.62,39.59V35.86h-.87v-.61h.88V33.7l.67-.16v1.7h1.59v.61h-1.59v3.62c0,.71.28,1,.84,1a2,2,0,0,0,.78-.18V41a2,2,0,0,1-.85.17A1.35,1.35,0,0,1,172.62,39.59Z"/><path class="cls-4" d="M175.49,38.13c0-1.8.86-3,2.34-3s2.3,1.43,2.11,3.35H176.2c.1,1.42.82,2,2,2a3.13,3.13,0,0,0,1.39-.31v.64a3.2,3.2,0,0,1-1.43.31C176.39,41.14,175.49,40,175.49,38.13Zm3.81-.26c0-1.3-.43-2.1-1.48-2.1s-1.58.83-1.64,2.1Z"/><path class="cls-4" d="M181.08,35.25h.62V36.4a2,2,0,0,1,2.06-1.27v.68a1.77,1.77,0,0,0-2,1.54V41h-.68Z"/><path class="cls-4" d="M186.31,35.12a1.82,1.82,0,0,1,1.64,1V32.61h.68V41H188v-.92a1.84,1.84,0,0,1-1.7,1.06c-1.49,0-2.21-1.32-2.21-3S184.82,35.12,186.31,35.12ZM188,37a1.63,1.63,0,0,0-1.54-1.22c-1.13,0-1.62,1-1.62,2.39s.49,2.39,1.62,2.39A1.63,1.63,0,0,0,188,39.29Z"/><path class="cls-4" d="M190,33.5a.47.47,0,0,1,.94,0,.47.47,0,0,1-.94,0Zm.13,1.75h.67V41h-.67Z"/><path class="cls-4" d="M195.45,35.51v.65a2.85,2.85,0,0,0-1.5-.43c-.73,0-1.25.35-1.25.95,0,1.45,3.08.88,3.08,2.89,0,1.07-.89,1.57-2,1.57a3.31,3.31,0,0,1-1.8-.44V40a3.16,3.16,0,0,0,1.76.49c.78,0,1.31-.31,1.31-.94,0-1.46-3.09-.85-3.09-2.89,0-1,.77-1.57,1.9-1.57A3.23,3.23,0,0,1,195.45,35.51Z"/><path class="cls-4" d="M196.56,38.13c0-1.82,1-3,2.49-3a2.44,2.44,0,0,1,1.25.31v.64a2.21,2.21,0,0,0-1.16-.32c-1.21,0-1.88.95-1.88,2.39s.58,2.37,1.8,2.37a3,3,0,0,0,1.31-.3v.62a2.81,2.81,0,0,1-1.31.31C197.4,41.14,196.56,39.95,196.56,38.13Z"/><path class="cls-4" d="M203.76,41.14a1.82,1.82,0,0,1-1.64-1v3.48h-.68v-8.4h.62v.92a1.84,1.84,0,0,1,1.7-1.06c1.49,0,2.21,1.32,2.21,3S205.24,41.14,203.76,41.14Zm-1.64-1.85a1.63,1.63,0,0,0,1.54,1.22c1.13,0,1.62-1,1.62-2.39s-.49-2.39-1.62-2.39A1.63,1.63,0,0,0,202.11,37Z"/><path class="cls-4" d="M207.85,41h-.67V32.25h.67Z"/><path class="cls-4" d="M209.25,33.5a.47.47,0,0,1,.94,0,.47.47,0,0,1-.94,0Zm.13,1.75h.67V41h-.67Z"/><path class="cls-4" d="M211.56,35.25h.62v.83a1.84,1.84,0,0,1,1.7-1,1.77,1.77,0,0,1,1.8,2V41H215V37.13c0-.95-.5-1.39-1.26-1.39a1.59,1.59,0,0,0-1.5,1.18V41h-.68Z"/><path class="cls-4" d="M221.53,40.43V41a1.59,1.59,0,0,1-.41.06.83.83,0,0,1-.9-.71,2,2,0,0,1-1.7.79,1.67,1.67,0,0,1-1.83-1.73c0-1.25,1-1.86,2.27-1.86a4.64,4.64,0,0,1,1.18.17v-.6c0-.77-.31-1.38-1.44-1.38a4.23,4.23,0,0,0-1.66.36v-.66a5,5,0,0,1,1.73-.32,1.82,1.82,0,0,1,2,2.09v2.71c0,.41.2.55.5.55A.76.76,0,0,0,221.53,40.43Zm-1.4-.78V38.31a3.83,3.83,0,0,0-1.07-.16c-1,0-1.68.37-1.68,1.22a1.12,1.12,0,0,0,1.24,1.16A1.6,1.6,0,0,0,220.12,39.65Z"/><path class="cls-4" d="M222.35,35.25H223V36.4A2,2,0,0,1,225,35.13v.68a1.77,1.77,0,0,0-2,1.54V41h-.68Z"/><path class="cls-4" d="M225.87,43a1.05,1.05,0,0,0,.81-.16,2.21,2.21,0,0,0,.66-1.15l.23-.7-2.3-5.78H226l1.91,4.91,1.57-4.91h.73L228,41.89a2.77,2.77,0,0,1-.91,1.49,1.51,1.51,0,0,1-1.2.26Z"/><path class="cls-4" d="M233,36.87c0-2.78,1.43-4.39,3.32-4.39a2.94,2.94,0,0,1,1.57.42v.65a3,3,0,0,0-1.54-.4c-1.57,0-2.63,1.31-2.64,3.72s1,3.6,2.58,3.6A3.43,3.43,0,0,0,238,40v.68a3.78,3.78,0,0,1-1.75.41C234.46,41.14,233,39.74,233,36.87Z"/><path class="cls-4" d="M243.37,38.13c0,1.88-.83,3-2.34,3s-2.34-1.13-2.34-3,.84-3,2.34-3S243.37,36.22,243.37,38.13Zm-4,0c0,1.48.54,2.37,1.64,2.37s1.64-.9,1.64-2.37-.53-2.39-1.64-2.39S239.39,36.65,239.39,38.13Z"/><path class="cls-4" d="M251.56,37.06V41h-.68V37.09c0-.88-.38-1.36-1.13-1.36a1.56,1.56,0,0,0-1.36,1V41h-.67V37.09c0-.88-.4-1.36-1.12-1.36a1.54,1.54,0,0,0-1.37,1.08V41h-.68V35.25h.62V36a1.7,1.7,0,0,1,1.52-.91,1.5,1.5,0,0,1,1.46.94,1.88,1.88,0,0,1,1.66-.94A1.71,1.71,0,0,1,251.56,37.06Z"/><path class="cls-4" d="M255.32,41.14a1.82,1.82,0,0,1-1.64-1v3.48H253v-8.4h.62v.92a1.84,1.84,0,0,1,1.7-1.06c1.49,0,2.21,1.32,2.21,3S256.81,41.14,255.32,41.14Zm-1.64-1.85a1.63,1.63,0,0,0,1.54,1.22c1.13,0,1.62-1,1.62-2.39s-.49-2.39-1.62-2.39A1.63,1.63,0,0,0,253.68,37Z"/><path class="cls-4" d="M262.8,41h-.62v-.83a1.84,1.84,0,0,1-1.7,1,1.77,1.77,0,0,1-1.8-2V35.25h.68v3.87c0,.95.5,1.39,1.26,1.39a1.59,1.59,0,0,0,1.5-1.18V35.25h.68Z"/><path class="cls-4" d="M264.55,39.59V35.86h-.88v-.61h.88V33.7l.67-.16v1.7h1.59v.61h-1.59v3.62c0,.71.28,1,.84,1a2,2,0,0,0,.78-.18V41a2,2,0,0,1-.85.17A1.35,1.35,0,0,1,264.55,39.59Z"/><path class="cls-4" d="M272.2,40.43V41a1.58,1.58,0,0,1-.41.06.83.83,0,0,1-.9-.71,2,2,0,0,1-1.7.79,1.67,1.67,0,0,1-1.83-1.73c0-1.25,1-1.86,2.27-1.86a4.64,4.64,0,0,1,1.18.17v-.6c0-.77-.31-1.38-1.44-1.38a4.23,4.23,0,0,0-1.66.36v-.66a5,5,0,0,1,1.73-.32,1.82,1.82,0,0,1,2,2.09v2.71c0,.41.2.55.5.55A.75.75,0,0,0,272.2,40.43Zm-1.4-.78V38.31a3.84,3.84,0,0,0-1.07-.16c-1,0-1.68.37-1.68,1.22a1.12,1.12,0,0,0,1.23,1.16A1.6,1.6,0,0,0,270.8,39.65Z"/><path class="cls-4" d="M273.27,39.59V35.86h-.87v-.61h.87V33.7l.67-.16v1.7h1.6v.61h-1.6v3.62c0,.71.28,1,.84,1a2,2,0,0,0,.78-.18V41a2,2,0,0,1-.85.17A1.35,1.35,0,0,1,273.27,39.59Z"/><path class="cls-4" d="M276.42,33.5a.47.47,0,0,1,.94,0,.47.47,0,0,1-.94,0Zm.13,1.75h.67V41h-.67Z"/><path class="cls-4" d="M283.11,38.13c0,1.88-.83,3-2.34,3s-2.34-1.13-2.34-3,.84-3,2.34-3S283.11,36.22,283.11,38.13Zm-4,0c0,1.48.54,2.37,1.64,2.37s1.64-.9,1.64-2.37-.53-2.39-1.64-2.39S279.13,36.65,279.13,38.13Z"/><path class="cls-4" d="M284.3,35.25h.62v.83a1.84,1.84,0,0,1,1.7-1,1.77,1.77,0,0,1,1.8,2V41h-.68V37.13c0-.95-.5-1.39-1.26-1.39a1.59,1.59,0,0,0-1.5,1.18V41h-.68Z"/><path class="cls-4" d="M168.7,54.83v.56a1.6,1.6,0,0,1-.41.06.83.83,0,0,1-.9-.71,2,2,0,0,1-1.7.79,1.67,1.67,0,0,1-1.84-1.73c0-1.25,1-1.86,2.27-1.86a4.64,4.64,0,0,1,1.18.17v-.6c0-.77-.31-1.38-1.44-1.38a4.23,4.23,0,0,0-1.66.36v-.66a5,5,0,0,1,1.73-.32,1.82,1.82,0,0,1,2,2.09v2.71c0,.41.2.55.5.55A.76.76,0,0,0,168.7,54.83ZM167.3,54V52.71a3.83,3.83,0,0,0-1.07-.16c-1,0-1.68.37-1.68,1.22a1.12,1.12,0,0,0,1.24,1.16A1.6,1.6,0,0,0,167.3,54Z"/><path class="cls-4" d="M169.52,49.65h.62v.83a1.84,1.84,0,0,1,1.7-1,1.77,1.77,0,0,1,1.8,2V55.4H173V51.53c0-.95-.5-1.39-1.26-1.39a1.59,1.59,0,0,0-1.5,1.18V55.4h-.68Z"/><path class="cls-4" d="M177,49.52a1.82,1.82,0,0,1,1.64,1V47h.68v8.4h-.62v-.92a1.84,1.84,0,0,1-1.7,1.06c-1.49,0-2.21-1.32-2.21-3S175.51,49.52,177,49.52Zm1.64,1.85a1.63,1.63,0,0,0-1.54-1.22c-1.13,0-1.62,1-1.62,2.39s.49,2.39,1.62,2.39a1.63,1.63,0,0,0,1.54-1.22Z"/><path class="cls-4" d="M185,47h.77l2.83,8.4h-.75l-.73-2.24H183.7L183,55.4h-.75Zm1.89,5.49-1.22-3.69c-.11-.34-.2-.66-.29-1-.08.32-.18.65-.29,1l-1.22,3.69Z"/><path class="cls-4" d="M189.43,49.65h.62v.83a1.84,1.84,0,0,1,1.7-1,1.77,1.77,0,0,1,1.8,2V55.4h-.68V51.53c0-.95-.5-1.39-1.26-1.39a1.59,1.59,0,0,0-1.5,1.18V55.4h-.68Z"/><path class="cls-4" d="M199.4,54.83v.56a1.59,1.59,0,0,1-.41.06.83.83,0,0,1-.9-.71,2,2,0,0,1-1.7.79,1.67,1.67,0,0,1-1.83-1.73c0-1.25,1-1.86,2.27-1.86a4.62,4.62,0,0,1,1.17.17v-.6c0-.77-.31-1.38-1.44-1.38a4.22,4.22,0,0,0-1.66.36v-.66a5,5,0,0,1,1.73-.32,1.82,1.82,0,0,1,2,2.09v2.71c0,.41.2.55.5.55A.75.75,0,0,0,199.4,54.83ZM198,54V52.71a3.83,3.83,0,0,0-1.07-.16c-1,0-1.68.37-1.68,1.22a1.12,1.12,0,0,0,1.24,1.16A1.6,1.6,0,0,0,198,54Z"/><path class="cls-4" d="M200.93,55.4h-.67V46.65h.67Z"/><path class="cls-4" d="M202.4,57.43a1.06,1.06,0,0,0,.82-.16,2.22,2.22,0,0,0,.66-1.15l.23-.7-2.3-5.78h.71l1.91,4.91L206,49.65h.73l-2.21,6.64a2.77,2.77,0,0,1-.91,1.49,1.51,1.51,0,0,1-1.2.26Z"/><path class="cls-4" d="M210.66,49.91v.65a2.85,2.85,0,0,0-1.5-.43c-.73,0-1.25.35-1.25.95,0,1.45,3.08.88,3.08,2.89,0,1.07-.89,1.57-2,1.57a3.31,3.31,0,0,1-1.8-.44v-.67a3.16,3.16,0,0,0,1.76.49c.78,0,1.31-.31,1.31-.94,0-1.46-3.09-.85-3.09-2.89,0-1,.77-1.57,1.9-1.57A3.23,3.23,0,0,1,210.66,49.91Z"/><path class="cls-4" d="M212,47.9a.47.47,0,0,1,.94,0,.47.47,0,0,1-.94,0Zm.13,1.75h.67V55.4h-.67Z"/><path class="cls-4" d="M217.4,49.91v.65a2.85,2.85,0,0,0-1.5-.43c-.73,0-1.25.35-1.25.95,0,1.45,3.08.88,3.08,2.89,0,1.07-.89,1.57-2,1.57a3.31,3.31,0,0,1-1.8-.44v-.67a3.17,3.17,0,0,0,1.76.49c.78,0,1.31-.31,1.31-.94,0-1.46-3.09-.85-3.09-2.89,0-1,.77-1.57,1.89-1.57A3.23,3.23,0,0,1,217.4,49.91Z"/><path class="cls-4" d="M225.57,52.53c0,1.88-.83,3-2.34,3s-2.34-1.13-2.34-3,.84-3,2.34-3S225.57,50.62,225.57,52.53Zm-4,0c0,1.48.54,2.37,1.64,2.37s1.64-.9,1.64-2.37-.53-2.39-1.64-2.39S221.59,51.05,221.59,52.53Z"/><path class="cls-4" d="M227,50.26h-.84v-.61H227V48.58a1.52,1.52,0,0,1,1.62-1.7,2.05,2.05,0,0,1,.89.19v.6a1.77,1.77,0,0,0-.78-.17,1,1,0,0,0-1,1v1.1h1.49v.61h-1.49V55.4H227Z"/><path class="cls-4" d="M232.29,47h2.5a2.4,2.4,0,0,1,2.63,2.51,2.29,2.29,0,0,1-1.81,2.4l2.17,3.49h-.84L234.85,52H233V55.4h-.72Zm2.51,4.33a1.72,1.72,0,0,0,1.89-1.82,1.7,1.7,0,0,0-1.87-1.82H233v3.65Z"/><path class="cls-4" d="M238.33,52.53c0-1.8.86-3,2.34-3s2.3,1.43,2.11,3.35H239c.1,1.41.82,2,2,2a3.13,3.13,0,0,0,1.39-.31v.64a3.21,3.21,0,0,1-1.43.31C239.23,55.54,238.33,54.36,238.33,52.53Zm3.81-.26c0-1.3-.43-2.1-1.48-2.1s-1.58.83-1.64,2.1Z"/><path class="cls-4" d="M247.06,49.91v.65a2.85,2.85,0,0,0-1.5-.43c-.73,0-1.25.35-1.25.95,0,1.45,3.08.88,3.08,2.89,0,1.07-.89,1.57-2,1.57a3.3,3.3,0,0,1-1.8-.44v-.67a3.16,3.16,0,0,0,1.76.49c.78,0,1.31-.31,1.31-.94,0-1.46-3.09-.85-3.09-2.89,0-1,.77-1.57,1.9-1.57A3.23,3.23,0,0,1,247.06,49.91Z"/><path class="cls-4" d="M248.36,47.9a.47.47,0,0,1,.94,0,.47.47,0,0,1-.94,0Zm.13,1.75h.67V55.4h-.67Z"/><path class="cls-4" d="M251.37,55.4h-.67V46.65h.67Z"/><path class="cls-4" d="M252.78,47.9a.47.47,0,0,1,.94,0,.47.47,0,0,1-.94,0Zm.13,1.75h.67V55.4h-.67Z"/><path class="cls-4" d="M254.79,52.53c0-1.8.86-3,2.34-3s2.3,1.43,2.11,3.35H255.5c.1,1.41.82,2,2,2a3.13,3.13,0,0,0,1.39-.31v.64a3.21,3.21,0,0,1-1.43.31C255.69,55.54,254.79,54.36,254.79,52.53Zm3.81-.26c0-1.3-.43-2.1-1.48-2.1s-1.58.83-1.64,2.1Z"/><path class="cls-4" d="M260.38,49.65H261v.83a1.84,1.84,0,0,1,1.7-1,1.77,1.77,0,0,1,1.8,2V55.4h-.68V51.53c0-.95-.5-1.39-1.26-1.39a1.59,1.59,0,0,0-1.5,1.18V55.4h-.68Z"/><path class="cls-4" d="M265.65,52.53c0-1.82,1-3,2.49-3a2.44,2.44,0,0,1,1.25.31v.64a2.21,2.21,0,0,0-1.16-.32c-1.21,0-1.88.95-1.88,2.39s.58,2.37,1.8,2.37a3,3,0,0,0,1.31-.3v.62a2.8,2.8,0,0,1-1.31.31C266.49,55.54,265.65,54.35,265.65,52.53Z"/><path class="cls-4" d="M270.17,52.53c0-1.8.86-3,2.34-3s2.3,1.43,2.11,3.35h-3.74c.1,1.41.82,2,2,2a3.13,3.13,0,0,0,1.39-.31v.64a3.2,3.2,0,0,1-1.43.31C271.06,55.54,270.17,54.36,270.17,52.53Zm3.81-.26c0-1.3-.43-2.1-1.48-2.1s-1.58.83-1.64,2.1Z"/></svg>