<svg id="Layer_1" data-name="Layer 1" xmlns="http://www.w3.org/2000/svg" viewBox="0 0 465 416"><defs><style>.cls-1,.cls-2{fill:#e5793e;}.cls-2{fill-rule:evenodd;}.cls-3{fill:none;stroke:#e5793e;stroke-linecap:round;stroke-miterlimit:10;stroke-width:5px;}</style></defs><title>Artboard 1</title><g id="Snapchat"><g id="Snapchat-2" data-name="Snapchat"><path class="cls-1" d="M275,127.44h-.89c-4.16,0-6.83-1.89-9.41-3.71-1.78-1.26-3.46-2.45-5.45-2.78a17.57,17.57,0,0,0-2.86-.24,19.57,19.57,0,0,0-4,.45,8.61,8.61,0,0,1-1.48.21.93.93,0,0,1-1-.73c-.16-.56-.28-1.1-.4-1.63-.29-1.35-.5-2.18-1.07-2.27-6.59-1-8.48-2.41-8.9-3.39a1.26,1.26,0,0,1-.1-.42.74.74,0,0,1,.62-.77c10.14-1.67,14.69-12,14.87-12.47l0,0a3.87,3.87,0,0,0,.36-3.24c-.7-1.64-3-2.36-4.47-2.84-.37-.12-.72-.23-1-.34-3-1.18-3.25-2.4-3.13-3,.2-1.06,1.61-1.79,2.75-1.79a1.93,1.93,0,0,1,.82.16,8.74,8.74,0,0,0,3.61,1,3,3,0,0,0,2.16-.69c0-.69-.08-1.4-.13-2.14-.3-4.79-.68-10.75.84-14.15a18.34,18.34,0,0,1,17-11h1.42a18.37,18.37,0,0,1,17.06,11c1.52,3.4,1.14,9.36.84,14.15v.21c0,.67-.08,1.31-.12,1.94a2.88,2.88,0,0,0,2,.68h0a9,9,0,0,0,3.4-.95,2.58,2.58,0,0,1,1.06-.21,3.22,3.22,0,0,1,1.22.23h0a2.24,2.24,0,0,1,1.7,1.82c0,.7-.52,1.76-3.15,2.8-.27.11-.62.22-1,.34-1.5.48-3.77,1.2-4.47,2.84a3.86,3.86,0,0,0,.36,3.24l0,0c.19.44,4.73,10.8,14.87,12.47a.74.74,0,0,1,.62.77,1.25,1.25,0,0,1-.1.42c-.42,1-2.3,2.37-8.9,3.39-.54.08-.75.79-1.07,2.26-.12.54-.24,1.06-.4,1.62a.88.88,0,0,1-.94.71h-.08a8.3,8.3,0,0,1-1.48-.19,19.67,19.67,0,0,0-4-.42,17.6,17.6,0,0,0-2.86.24c-2,.33-3.66,1.52-5.44,2.77C281.87,125.56,279.2,127.44,275,127.44Z"/></g></g><g id="Twitter"><path id="Twitter-2" data-name="Twitter" class="cls-1" d="M316.24,256.77a29.39,29.39,0,0,1-8.45,2.32,14.75,14.75,0,0,0,6.47-8.14,29.45,29.45,0,0,1-9.34,3.57,14.72,14.72,0,0,0-25.06,13.41,41.75,41.75,0,0,1-30.31-15.37,14.72,14.72,0,0,0,4.55,19.63,14.64,14.64,0,0,1-6.66-1.84c0,.06,0,.12,0,.19A14.72,14.72,0,0,0,259.24,285a14.74,14.74,0,0,1-6.64.25,14.72,14.72,0,0,0,13.74,10.21,29.51,29.51,0,0,1-18.26,6.29,29.91,29.91,0,0,1-3.51-.21,41.62,41.62,0,0,0,22.54,6.61c27,0,41.84-22.41,41.84-41.84q0-1,0-1.9A29.88,29.88,0,0,0,316.24,256.77Z"/></g><g id="Instagram"><path id="Instagram-2" data-name="Instagram" class="cls-2" d="M129.57,180h-6.24a22.06,22.06,0,1,1-42.66,0H74.43v30.33a2.76,2.76,0,0,0,2.76,2.75h49.62a2.76,2.76,0,0,0,2.76-2.75Zm0-19.3a2.76,2.76,0,0,0-2.76-2.76h-8.27a2.76,2.76,0,0,0-2.76,2.76V169a2.76,2.76,0,0,0,2.76,2.76h8.27a2.76,2.76,0,0,0,2.76-2.76Zm-27.57,11a13.79,13.79,0,1,0,13.79,13.78A13.78,13.78,0,0,0,102,171.71m27.57,49.63H74.43a8.27,8.27,0,0,1-8.27-8.27V157.93a8.27,8.27,0,0,1,8.27-8.27h55.14a8.27,8.27,0,0,1,8.27,8.27v55.14a8.27,8.27,0,0,1-8.27,8.27"/></g><g id="Linkedin"><g id="Linkedin-2" data-name="Linkedin"><path class="cls-1" d="M83.48,301.25H98.34V349H83.48Zm7.44-23.76a8.61,8.61,0,1,1-8.62,8.61,8.61,8.61,0,0,1,8.62-8.61"/><path class="cls-1" d="M107.66,301.25H121.9v6.53h.2c2-3.76,6.83-7.72,14.05-7.72,15,0,17.82,9.9,17.82,22.77V349H139.12V325.8c0-5.54-.1-12.67-7.72-12.67s-8.91,6-8.91,12.28V349H107.66Z"/></g></g><g id="Facebook"><path id="Facebook-2" data-name="Facebook" class="cls-1" d="M407.08,152.16H343.32a4,4,0,0,0-4,4v63.77a4,4,0,0,0,4,4h34.33V196.08h-9.34V185.26h9.34v-8c0-9.26,5.65-14.3,13.91-14.3a76.91,76.91,0,0,1,8.35.43v9.68h-5.73c-4.49,0-5.36,2.13-5.36,5.27v6.91h10.71l-1.39,10.82h-9.32v27.76h18.27a4,4,0,0,0,4-4V156.12A4,4,0,0,0,407.08,152.16Z"/></g><g id="Dribbble"><path id="dribble" class="cls-1" d="M149.83,84.65a109,109,0,0,0-5.64-20.4,59.61,59.61,0,0,1,18.25.78A30.07,30.07,0,0,1,149.83,84.65Zm-35.07-.92c5.05-7.62,12.1-15.14,23.54-18.31a102.32,102.32,0,0,1,6,22.22,30.24,30.24,0,0,1-11.41,2.24A29.75,29.75,0,0,1,114.77,83.73ZM103,60V59h.18c10.66,0,21.27-.72,30.76-3.5.69,1.43,1.41,2.9,2.06,4.42-12.48,3.68-20.28,11.89-25.59,19.71A29.66,29.66,0,0,1,103,60Zm17.05-27a147.17,147.17,0,0,1,11.08,17.2c-8.42,2.3-17.83,2.93-27.33,3A30.14,30.14,0,0,1,120.05,32.93Zm32.26,4.24a37.45,37.45,0,0,1-15.51,11.05,155,155,0,0,0-10.93-17.35,30.54,30.54,0,0,1,7-.83A29.78,29.78,0,0,1,152.31,37.17Zm4.12,4.3a29.93,29.93,0,0,1,6.42,17.65,63.55,63.55,0,0,0-21-.51c-.77-1.73-1.55-3.44-2.36-5.08A43,43,0,0,0,156.44,41.47ZM132.93,24.12A35.84,35.84,0,1,0,168.77,60,35.83,35.83,0,0,0,132.93,24.12Z"/></g><circle class="cls-1" cx="212" cy="194" r="18"/><polygon class="cls-1" points="205.94 197.51 155.5 96.5 218.06 190.49 205.94 197.51"/><polygon class="cls-1" points="206.38 189.83 258 132 217.62 198.17 206.38 189.83"/><polygon class="cls-1" points="211.97 187 316.5 193.5 212.03 201 211.97 187"/><polygon class="cls-1" points="217.52 189.69 247.5 239.5 206.48 198.31 217.52 189.69"/><polygon class="cls-1" points="217.52 198.3 141.5 284.5 206.48 189.7 217.52 198.3"/><polygon class="cls-1" points="211.94 201 149.5 193.5 212.06 187 211.94 201"/><line class="cls-3" x1="100.5" y1="137.5" x2="114.5" y2="102.5"/><line class="cls-3" x1="183.5" y1="66.5" x2="235.5" y2="74.5"/><line class="cls-3" x1="115.5" y1="279.5" x2="107.5" y2="234.5"/><line class="cls-3" x1="168.5" y1="321.5" x2="234.5" y2="308.5"/><line class="cls-3" x1="327.5" y1="274.5" x2="371.5" y2="234.5"/><line class="cls-3" x1="322.5" y1="110.5" x2="349.5" y2="140.5"/></svg>